<svg width="192" height="170" viewBox="0 0 192 170" fill="none" xmlns="http://www.w3.org/2000/svg">
<g filter="url(#filter0_i_98_21)">
<path fill-rule="evenodd" clip-rule="evenodd" d="M178 47L192 0H61L40 64H14L0 111H25L7 170H56L78 98H18L24 78H154L148 98H100L77 170H91L110 111H158L172 64H90L95 47H178ZM61 111H39L25 156H46L61 111ZM85 34L76 64H54L70 14H174L168 34H85Z" fill="#08B49C"/>
</g>
<defs>
<filter id="filter0_i_98_21" x="0" y="0" width="192" height="174" filterUnits="userSpaceOnUse" color-interpolation-filters="sRGB">
<feFlood flood-opacity="0" result="BackgroundImageFix"/>
<feBlend mode="normal" in="SourceGraphic" in2="BackgroundImageFix" result="shape"/>
<feColorMatrix in="SourceAlpha" type="matrix" values="0 0 0 0 0 0 0 0 0 0 0 0 0 0 0 0 0 0 127 0" result="hardAlpha"/>
<feOffset dy="4"/>
<feGaussianBlur stdDeviation="2"/>
<feComposite in2="hardAlpha" operator="arithmetic" k2="-1" k3="1"/>
<feColorMatrix type="matrix" values="0 0 0 0 0 0 0 0 0 0 0 0 0 0 0 0 0 0 0.25 0"/>
<feBlend mode="normal" in2="shape" result="effect1_innerShadow_98_21"/>
</filter>
</defs>
</svg>
